<svg id="logosandtypes_com" xmlns="http://www.w3.org/2000/svg" viewBox="0 0 150 150.2"><path d="M0 .2h150v150H0V.2z" fill="none"/><path d="M138.5 20.1c-7.3-2.2-15-2.7-22.6-1.5-7 1.2-13.5 3.6-18.4 8.9C89 37 86 48.3 87.6 60.8c1.6 11.9 6.9 22.3 13.7 32.1.4.6 2.6 3.1 2.6 3.1 15.9-29.8 39-74.2 39-74.2s-2.8-1.2-4.4-1.7z" fill="#07a7e5"/><path d="M98.1 93.3c-3.3-2.6-6.2-5.8-8.5-9.3-5.6-8.4-9.8-17.6-14.5-26.5C71.7 51.2 69 44.8 65 38.7 57.9 28 48.3 21.5 35 20.9H7.4S56.8 115.8 61 123.8c3.1 5.9 8.1 8.8 14.8 8.6 6.5-.2 10.8-3.7 13.6-9.3.7-1.4 6.7-12.6 14.4-27.1-1.6.2-4.5-1.7-5.7-2.7z" fill="#012269"/></svg>